<svg width="1986" height="333" fill="none" xmlns="http://www.w3.org/2000/svg">
  <path d="M246.3 58.3l-49-49c-6-6-14-9.3-22.6-9.3H19.2A19.2 19.2 0 000 19.2V313c0 10.6 8.6 19.2 19.2 19.2h217.2c10.6 0 19.2-8.6 19.2-19.2V81c0-8.6-3.3-16.6-9.3-22.6zM233.8 64H198a6.4 6.4 0 01-6.4-6.4V21.8l42 42.1zm2.6 255.6H19.2a6.4 6.4 0 01-6.4-6.4v-7.5c2 .7 4.1 1.1 6.4 1.1h217.2a19 19 0 006.4-1.1v7.5c0 3.6-2.8 6.4-6.4 6.4zm6.4-32c0 3.6-2.8 6.5-6.4 6.5H19.2a6.4 6.4 0 01-6.4-6.4V19.2c0-3.6 2.8-6.4 6.4-6.4h155.5c1.5 0 2.9.2 4.2.5v44.2c0 10.6 8.6 19.2 19.2 19.2h44.2c.3 1.4.5 2.8.5 4.2V287.6z" fill="#140F2D"/>
  <path d="M63.9 145.4H51.1c-7 0-12.8-5.8-12.8-12.8v-12.8c0-7 5.8-12.8 12.8-12.8H64c7 0 12.8 5.8 12.8 12.8v12.8c0 7-5.7 12.8-12.8 12.8zm-12.8-25.6v12.8H64v-12.8H51.1zM204.5 145.4H102.2c-7 0-12.7-5.8-12.7-12.8v-12.8c0-7 5.7-12.8 12.7-12.8h102.3c7 0 12.8 5.8 12.8 12.8v12.8c0 7-5.8 12.8-12.8 12.8zm-102.3-25.6v12.8h102.3v-12.8H102.2zM63.9 204.5H51.1c-7 0-12.8-5.7-12.8-12.8V179c0-7 5.8-12.8 12.8-12.8H64c7 0 12.8 5.8 12.8 12.8v12.8c0 7-5.7 12.8-12.8 12.8zm-12.8-25.6v12.8H64V179H51.1zM204.5 204.5H102.2c-7 0-12.7-5.7-12.7-12.8V179c0-7 5.7-12.8 12.7-12.8h102.3c7 0 12.8 5.8 12.8 12.8v12.8c0 7-5.8 12.8-12.8 12.8zm-102.3-25.6v12.8h102.3V179H102.2zM63.9 255.6H51.1c-7 0-12.8-5.7-12.8-12.8v-12.7c0-7 5.8-12.8 12.8-12.8H64c7 0 12.8 5.7 12.8 12.8v12.7c0 7-5.7 12.8-12.8 12.8zm-12.8-25.5v12.7H64v-12.7H51.1zM204.5 255.6H102.2c-7 0-12.7-5.7-12.7-12.8v-12.7c0-7 5.7-12.8 12.7-12.8h102.3c7 0 12.8 5.7 12.8 12.8v12.7c0 7-5.8 12.8-12.8 12.8zm-102.3-25.5v12.7h102.3v-12.7H102.2z" fill="#D62246"/>
  <path d="M390.9 128.3c-9.6 0-16.6 1.8-21 5.4a17.1 17.1 0 00-6.3 14.1c0 2 .3 4.1.9 6.3.6 2.2 1.7 4.3 3.3 6.3 1.8 1.8 4.1 3.6 6.9 5.4 3 1.6 6.9 2.9 11.7 3.9l21.3 4.8a61.3 61.3 0 0120.1 7.5c5.2 3 9.2 6.3 12 9.9a38.2 38.2 0 013 38.7c-2.4 5.4-6 10.1-10.8 14.1-4.6 4-10.3 7.1-17.1 9.3a68.2 68.2 0 01-22.8 3.6 92.5 92.5 0 01-51-15l5.4-19.5a74.4 74.4 0 0047.7 18.9c10 0 17.6-2.4 22.8-7.2 5.2-5 7.8-10.2 7.8-15.6l-.3-6a17 17 0 00-2.4-7.2 21.7 21.7 0 00-6.3-6.6 30.5 30.5 0 00-12-5.1l-28.8-7.2c-6.6-1.6-12-3.7-16.2-6.3a31.2 31.2 0 01-15-18.3c-1-3.6-1.5-7.2-1.5-10.8 0-12.2 4.5-21.9 13.5-29.1a56.7 56.7 0 0136.6-11.1c7.8 0 16.2 1.1 25.2 3.3 9 2 16.6 5 22.8 9l-5.7 18a75.9 75.9 0 00-43.8-13.5zm160 125.7h-26.7l-62.7-138h22.8L538 234.2 591.7 116h22l-62.8 138zm148.7-142.5c17.6 0 31.2 4.5 40.8 13.5 9.6 8.8 14.4 21.3 14.4 37.5a95 95 0 01-.6 10.5c-.4 3.4-1.1 5.9-2.1 7.5H651v3c0 7.6 1 14.9 3 21.9 2 7 5 13.2 9 18.6 4 5.4 9 9.7 15 12.9a47.1 47.1 0 0021.9 4.8 66.2 66.2 0 0027.3-5.7 127.6 127.6 0 0021.3-11.7l3.6 17.1c-2.6 1.6-5.8 3.4-9.6 5.4a100.3 100.3 0 01-27.9 9 78.7 78.7 0 01-17.1 1.8 64.6 64.6 0 01-64.5-45 85.9 85.9 0 010-55.5c3.2-9 7.8-16.9 13.8-23.7 6-6.8 13.4-12.1 22.2-15.9 9-4 19.2-6 30.6-6zm-.9 16.8a43.2 43.2 0 00-30.9 10.5 52 52 0 00-14.7 25.8H735l.3-2.7v-2.7c0-5-1-9.4-3-13.2a28 28 0 00-8.1-9.9 45.2 45.2 0 00-25.5-7.8zM815.6 254h-21V32h21v222zm55-123.9h-23.1V119l23.7-3 4.5-41.7h15.9V116H924v14.1h-32.4v95.7c0 6.4.9 10.6 2.7 12.6 2 2 5 3 9 3 4.6 0 8.7-.7 12.3-2.1 3.6-1.4 6.8-3.1 9.6-5.1l4.2 15.9a91.9 91.9 0 01-13.5 4.8 63.2 63.2 0 01-18 2.4 34 34 0 01-15-2.7 19 19 0 01-8.1-7.2 28 28 0 01-3.6-9.9 106 106 0 01-.6-11.1v-96.3zm149.5-18.6c17.6 0 31.2 4.5 40.8 13.5 9.6 8.8 14.4 21.3 14.4 37.5a95 95 0 01-.6 10.5c-.4 3.4-1 5.9-2 7.5H971.4v3c0 7.6 1 14.9 3 21.9 2 7 5 13.2 9 18.6 4 5.4 9 9.7 15 12.9a47.1 47.1 0 0022 4.8 66.2 66.2 0 0027.2-5.7 127.6 127.6 0 0021.3-11.7l3.6 17.1c-2.6 1.6-5.8 3.4-9.6 5.4a100.3 100.3 0 01-27.9 9 78.7 78.7 0 01-17 1.8 64.6 64.6 0 01-64.5-45 85.9 85.9 0 010-55.5c3.1-9 7.7-16.9 13.7-23.7 6-6.8 13.4-12.1 22.2-15.9 9-4 19.2-6 30.6-6zm-.9 16.8a43.2 43.2 0 00-30.9 10.5 52 52 0 00-14.7 25.8h82l.2-2.7v-2.7c0-5-1-9.4-3-13.2a28 28 0 00-8-9.9 45.2 45.2 0 00-25.5-7.8zm194.3 46.2v15.6H1112v-15.6h101.4zm49.4-44.4h-23.1V119l23-2.7c0-11.2.4-20.8 1-28.8.8-8 1.8-14.7 3-20.1a81.2 81.2 0 013.9-13.5 68 68 0 014.5-8.7c3.8-5.6 8.5-9.4 14-11.4a47.2 47.2 0 0121.7-3c2 0 4.2.2 6.6.6 2.6.2 5.2.7 7.8 1.5 2.6.6 5 1.5 7.5 2.7l-5.1 17.7c-.6 0-2-.3-4.2-.9L1316 50a75 75 0 00-8.7-2.7c-3-.8-5.7-1.2-8.1-1.2-3 0-5.5.9-7.5 2.7-2 1.6-3.6 4.4-4.8 8.4-1 3.8-1.8 8.9-2.4 15.3-.4 6.4-.6 14.3-.6 23.7V116h32.4v14.1h-32.4V254h-21V130.1zm140.7-18.6c12.2 0 22.7 2.1 31.5 6.3a63 63 0 0134.2 40.2 91.5 91.5 0 014.2 27.9c0 9.8-1.4 19.1-4.2 27.9a63 63 0 01-12.3 22.8 59.5 59.5 0 01-21.6 15.3 75.3 75.3 0 01-30.6 5.7c-12.2 0-22.8-2-31.8-6-8.8-4-16.1-9.3-22-15.9a67 67 0 01-12.8-23.4 91.5 91.5 0 01-4.2-27.9c0-9.8 1.4-19.1 4.2-27.9 2.8-8.8 7-16.5 12.6-23.1a59 59 0 0121.9-15.9 74 74 0 0130.9-6zm.9 130.2c8 0 14.9-1.5 20.7-4.5 6-3 10.9-7 14.7-12 4-5.2 6.9-11.1 8.7-17.7a82.9 82.9 0 00-.3-43.2 50 50 0 00-8.7-18.3 43.6 43.6 0 00-37-17.7 42.1 42.1 0 00-35.4 16.5 50 50 0 00-8.3 17.7 87.6 87.6 0 000 42.9c2 7 4.9 13.2 8.7 18.6 4 5.4 9 9.7 15 12.9a47.1 47.1 0 0021.9 4.8zm181-103.5a50 50 0 00-18.9-6c-4 0-7.8 1.1-11.4 3.3a37.8 37.8 0 00-9.9 9 70.3 70.3 0 00-13.2 28.8V254h-21V116h16.5l2.4 30.3h1.2A52.2 52.2 0 011545 122a38.9 38.9 0 0125.8-10.5c3.8 0 7.8.7 12 2.1a19 19 0 019 4.8l-6.3 19.8zM1714.1 254v-91.2c0-12.2-2.8-20.8-8.4-25.8a29.7 29.7 0 00-21-7.8 43.7 43.7 0 00-27.6 9.6 51.4 51.4 0 00-17.7 26.7V254h-21V116h16.5l2.4 25.8h1.2c2.6-8.4 8-15.5 16.2-21.3 8.4-6 19.2-9 32.4-9 12 0 22 2.7 30 8.1a34.4 34.4 0 0115.6 22.2c2-4 4.5-7.8 7.5-11.4a50.1 50.1 0 0125.2-16.2 57.7 57.7 0 0118.3-2.7c6.2 0 12 .9 17.7 2.7a36.4 36.4 0 0115 8.1c4.4 3.8 7.9 8.8 10.5 15a59 59 0 013.9 22.8V254h-21v-91.2c0-12.2-2.8-20.8-8.4-25.8a29.7 29.7 0 00-21-7.8 43.7 43.7 0 00-27.6 9.6 51.4 51.4 0 00-17.7 26.7V254h-21zm202.6-125.7c-9.6 0-16.6 1.8-21 5.4a17.1 17.1 0 00-6.3 14.1c0 2 .3 4.1.9 6.3.6 2.2 1.7 4.3 3.3 6.3 1.8 1.8 4 3.6 6.9 5.4 3 1.6 6.9 2.9 11.7 3.9l21.3 4.8a61.3 61.3 0 0120 7.5c5.3 3 9.3 6.3 12 9.9a38.2 38.2 0 013 38.7c-2.3 5.4-6 10.1-10.7 14.1-4.6 4-10.3 7.1-17.1 9.3a68.2 68.2 0 01-22.8 3.6 92.5 92.5 0 01-51-15l5.4-19.5A74.4 74.4 0 001920 242c10 0 17.6-2.4 22.8-7.2 5.2-5 7.8-10.2 7.8-15.6l-.3-6a17 17 0 00-2.4-7.2 21.7 21.7 0 00-6.3-6.6 30.5 30.5 0 00-12-5.1l-28.8-7.2c-6.6-1.6-12-3.7-16.2-6.3a31.2 31.2 0 01-15-18.3c-1-3.6-1.5-7.2-1.5-10.8 0-12.2 4.5-21.9 13.5-29.1a56.7 56.7 0 0136.6-11.1c7.8 0 16.2 1.1 25.2 3.3 9 2 16.6 5 22.8 9l-5.7 18a75.9 75.9 0 00-43.8-13.5z" fill="#140F2D"/>
</svg>
